<?xml version="1.0" encoding="utf-8"?>
<!-- Generator: Adobe Illustrator 21.0.0, SVG Export Plug-In . SVG Version: 6.00 Build 0)  -->
<svg version="1.1" id="mq" xmlns="http://www.w3.org/2000/svg" xmlns:xlink="http://www.w3.org/1999/xlink" x="0px" y="0px"
	 viewBox="0 0 300 300" enable-background="new 0 0 300 300" xml:space="preserve">
<g>
	<path fill="#FFFFFF" d="M294.2,121.9c-0.4-6.7-1.1-9.7-2.7-16.3c-1.6-6.7-3.4-11.2-5.7-16.5c-2.3-5.3-5.5-10-9.7-15.8
		c-4.2-5.8-10.5-11.2-15.2-14.7c-4.7-3.6-11.1-6.9-20.3-9.6c-9.2-2.6-14-1.8-23.5-0.6c-9.5,1.2-15,4.8-19.7,7.4
		c-4.8,2.6-10.9,8.3-10.9,8.3L174,60.2c0,0,5.6-3.1,11.9-8.6s8.7-9,11.7-13.3s3.3-9.4,2.5-13.6c-0.9-4.3-4.4-6.9-6.5-8.4
		c-2.1-1.5-6.1-3.7-13.8-3.8c-7.7-0.1-10.7,2.4-11.6,2.8c-0.9,0.4-5.8,3.9-6.2,7c-0.4,3.2,0.5,4.1,1.7,4.4c1.2,0.3,2.2-1.2,2.9-2.1
		c0.7-0.9,0-2.3,5.8-4.6c5.8-2.2,10.6-0.9,15,0.7c4.4,1.6,5.7,4.7,6,7.1c0.4,2.5-1.5,5.9-3.3,8.7c-1.8,2.8-6.8,7.3-9.2,9.4
		c-2.3,2-11.1,7.5-14.4,10.1c-3.4,2.6-3.7,5.1-2.5,7.7s5,3.3,7.7,3.5c2.7,0.3,11,0.7,11,0.7s-2.3,2.5-6.5,7.7
		c-4.2,5.2-8,13.6-10.6,19.5c-2.6,5.8-4.3,13.7-5.3,19.1c-1,5.4-1.3,12.1-1.4,17.1c-0.1,5,0.7,16,1.3,20.4s2.8,14.1,4,18.2
		c1.2,4.1,4.6,13.8,5.4,16.2s6.4,19.6,6.8,20.9s2.1,7.8,2.6,13.6c0.5,5.8-0.5,7.8-2.2,13.9s-5.9,11.1-9,14.5
		c-3.1,3.4-7.9,6.4-9.6,7.6c-1.7,1.1-8.2,4.8-8.2,4.8s0,0,0-0.5s-1.5-9.2-2.5-15.2c-1-6-1.9-9.9-3.1-15s-4.5-16.6-5.6-19.9
		c-1.1-3.3-4.3-11.3-6.6-16.2c-2.2-4.8-3.4-6.1-6.5-10.3c-3.1-4.2-6.7-5-10.5-4.8c-3.8,0.2-7.8,5.4-9.7,8s-6.1,11.7-9.1,18.4
		s-7.1,13-9,15.6c-1.8,2.5-5.1,4.4-5.7,4.7c-0.5,0.2-2.5,1.1-6.3-0.8c-3.8-1.9-7.9-6.1-9.7-8s-6.4-7.8-7.3-8.9
		c-0.9-1.1-5.9-8.7-6.7-9.8c-0.8-1.1-4.9-6.4-7-8.6c-2.1-2.2-3.9-4-7.6-4.4s-4.7,0.2-7.5,2.2c-2.8,1.9-6.8,10.1-8.8,14.6
		c-2,4.5-5.6,15.6-6.7,19.1c-1.1,3.5-5.2,21.8-5.8,25c-0.6,3.1-2.8,18-3,20.6s-0.2,15-0.2,15s0-0.5,0,1.1c0,1.6,1,2.7,1.9,2.7
		s1.8-0.5,2.1-1.5c0.4-0.9,1.5-9.2,2.1-12.2c0.7-2.9,2.1-11,2.6-14c0.4-3,2.9-14,2.9-14l3.2-13.1c0,0,4.2-13.2,5.1-16.2
		c1-3,4.3-11.1,5.3-13.4c1.1-2.3,3.3-5.7,4.1-6.7s1.9-1.2,4,0.7c2.1,2,5,6.1,6.4,8.2c1.4,2.1,7.1,10.2,11,15.2
		c3.9,5,9,9.8,13.4,12.9c4.4,3.2,6.9,3.3,11,3.4c4.1,0.2,6.6-1.4,10-3.8s5.1-5.6,7.3-8.5s4.6-7.5,5.2-8.9c0.7-1.4,5.9-12.4,7.8-16.5
		c1.9-4,4.3-7.3,5-8c0.7-0.7,1-1.2,3,0.9c2,2.1,4.1,6.4,6.7,11.5c2.5,5.1,5.9,14.1,7.1,16.9c1.2,2.8,5.9,17,6.7,19.7
		c0.8,2.8,4.8,16.2,5.5,18.7s2.8,9.9,2.8,9.9s-1.4,0.4-3.5,0.9c-2.1,0.5-10.9,2.5-14.1,3c-3.2,0.5-3.1,1.4-2.7,1.9
		c0.4,0.6,1.5,0.8,2.8,1.1c1.3,0.3,5.2-0.3,12.3-1c7.1-0.7,14-2.6,21.9-4.3c7.9-1.7,18.5-5.1,24.9-7.4s15.4-7.3,22.7-11.5
		s12.6-8.2,17-11.2s12.4-9.5,15.6-12.2c3.2-2.7,12.6-11.7,16.9-15.9s9.7-11.3,13.1-16.5c3.4-5.1,5-8.3,7.9-13.7s5.7-14,6.6-16.5
		c0.9-2.5,2.9-11.1,4.2-18.6C294.8,137.6,294.6,128.6,294.2,121.9z M285.4,131.7c-0.4,6.1-1.1,14.9-2.1,19
		c-1.1,4.1-3.4,12.7-4.8,16.1c-1.4,3.5-4.7,11.4-7.2,15.5s-6.7,11.2-10.9,16.2c-4.2,5-15.8,16.7-22,22c-6.3,5.2-19.1,14.6-23.8,17.5
		s-12.2,7.7-19.1,10.9s-10.1,4.9-17.6,7.7c-7.5,2.8-24.8,9.1-27.3,9.5v-1.9c0,0,4.5-1.3,9.1-3.7c4.6-2.4,8.8-3.9,15.1-10.4
		c6.3-6.4,10.1-12.6,11-16.4c0.9-3.7,2.1-8.9,1.5-14.8s-1.4-10.2-2.8-15.1s-5.1-15.8-6-18.5c-0.9-2.7-4.3-12.3-5.1-15.5
		c-0.9-3.2-3.1-10.2-3.8-14.7c-0.7-4.5-2-11-2.1-16.1c-0.2-5.1-0.6-11.3,0.3-17.4c0.9-6.1,2.5-15.4,4.9-21.2
		c2.5-5.7,6.5-14.3,8.9-17.7c2.3-3.4,5.9-9,11.6-13.7c5.7-4.7,10.5-8,13.8-9.4c3.4-1.3,10.1-4.1,17.2-4.3s15.3,1.1,21.3,4.1
		c5.9,3,10.1,5.5,13.3,8.3c3.2,2.8,9.1,8.2,12.1,13.1s6.2,9.9,8,14.7s3.8,10.3,4.8,16.2C284.7,117.9,285.8,125.6,285.4,131.7z"/>
</g>
</svg>
