<?xml version="1.0" encoding="utf-8"?>
<!-- Generator: Adobe Illustrator 21.0.0, SVG Export Plug-In . SVG Version: 6.00 Build 0)  -->
<svg version="1.1" xmlns="http://www.w3.org/2000/svg" xmlns:xlink="http://www.w3.org/1999/xlink" x="0px" y="0px"
	 viewBox="0 0 300 300" enable-background="new 0 0 300 300" xml:space="preserve">
<g id="_x31_">
	<path fill="#050000" d="M5.5,281.9c0,0,0-12.3,0.2-15c0.2-2.7,2.4-17.5,3-20.6c0.6-3.1,4.6-21.5,5.8-25c1.1-3.5,4.8-14.6,6.7-19.1
		s6-12.7,8.8-14.6c2.8-1.9,3.9-2.7,7.5-2.2c3.6,0.5,5.5,2.2,7.6,4.4c2.1,2.2,6.2,7.5,7,8.6c0.8,1.1,5.8,8.7,6.7,9.8
		c0.9,1.1,5.4,7.1,7.3,8.9s5.9,6.1,9.7,8c3.8,1.9,5.8,1.1,6.3,0.8c0.5-0.2,3.9-2.1,5.7-4.7c1.8-2.5,6-8.9,9-15.6s7.3-15.8,9.1-18.4
		c1.8-2.6,5.9-7.8,9.7-8c3.8-0.2,7.3,0.7,10.5,4.8c3.1,4.2,4.3,5.5,6.5,10.3c2.2,4.8,5.5,12.9,6.6,16.2c1.1,3.3,4.4,14.8,5.6,19.9
		c1.2,5.1,2.1,9,3.1,15s2.5,14.7,2.5,15.2c0,0.5,0,0.5,0,0.5s6.4-3.6,8.2-4.8c1.7-1.1,6.5-4.1,9.6-7.6c3.1-3.4,7.3-8.4,9-14.5
		s2.7-8.1,2.2-13.9s-2.2-12.3-2.6-13.6c-0.4-1.3-6-18.6-6.8-20.9c-0.9-2.3-4.3-12.1-5.4-16.2c-1.2-4.1-3.3-13.8-4-18.2
		c-0.7-4.4-1.4-15.4-1.3-20.4c0.1-5,0.4-11.7,1.4-17.1s2.8-13.3,5.3-19.1c2.6-5.8,6.4-14.3,10.6-19.5c4.2-5.2,6.5-7.7,6.5-7.7
		s-8.3-0.4-11-0.7c-2.7-0.3-6.6-1-7.7-3.5c-1.1-2.5-0.8-5.1,2.5-7.7c3.4-2.6,12.1-8.1,14.4-10.1c2.3-2,7.4-6.6,9.2-9.4
		c1.8-2.8,3.6-6.2,3.3-8.7s-1.6-5.6-6-7.1c-4.4-1.6-9.2-2.9-15-0.7c-5.8,2.2-5.1,3.7-5.8,4.6c-0.7,0.9-1.7,2.4-2.9,2.1
		c-1.2-0.3-2.1-1.2-1.7-4.4c0.4-3.2,5.3-6.7,6.2-7c0.9-0.4,3.9-2.9,11.6-2.8s11.7,2.3,13.8,3.8c2.1,1.5,5.6,4.2,6.5,8.4
		c0.9,4.3,0.6,9.3-2.5,13.6s-5.5,7.8-11.7,13.3S174,60.2,174,60.2l12.5,3.9c0,0,6.1-5.7,10.9-8.3s10.3-6.2,19.7-7.4
		c9.5-1.2,14.3-2,23.5,0.6c9.2,2.6,15.6,6,20.3,9.6c4.7,3.6,11,8.9,15.2,14.7s7.4,10.5,9.7,15.8c2.3,5.3,4.1,9.8,5.7,16.5
		c1.6,6.7,2.2,9.6,2.7,16.3s0.6,15.7-0.7,23.2c-1.3,7.5-3.3,16.1-4.2,18.6c-0.9,2.5-3.7,11.2-6.6,16.5c-2.9,5.4-4.5,8.6-7.9,13.7
		c-3.4,5.1-8.8,12.2-13.1,16.5s-13.7,13.2-16.9,15.9s-11.3,9.1-15.6,12.2c-4.3,3.1-9.7,7-17,11.2c-7.3,4.2-16.3,9.3-22.7,11.5
		c-6.4,2.2-17,5.7-24.9,7.4c-7.9,1.7-14.7,3.5-21.9,4.3c-7.1,0.7-11,1.3-12.3,1c-1.3-0.3-2.4-0.5-2.8-1.1s-0.5-1.4,2.7-1.9
		c3.2-0.5,12.1-2.5,14.1-3c2.1-0.5,3.5-0.9,3.5-0.9s-2.1-7.3-2.8-9.9c-0.7-2.5-4.7-16-5.5-18.7c-0.8-2.8-5.5-16.9-6.7-19.7
		c-1.2-2.8-4.5-11.8-7.1-16.9c-2.5-5.1-4.6-9.4-6.7-11.5c-2-2.1-2.3-1.6-3-0.9s-3.2,4-5,8c-1.9,4-7.1,15.1-7.8,16.5
		c-0.7,1.4-3,6-5.2,8.9c-2.2,3-3.9,6.2-7.3,8.5c-3.4,2.4-5.9,3.9-10,3.8c-4.1-0.2-6.7-0.3-11-3.4c-4.4-3.2-9.5-7.9-13.4-12.9
		s-9.5-13.1-11-15.2c-1.4-2.1-4.4-6.2-6.4-8.2s-3.2-1.8-4-0.7c-0.8,1-3,4.4-4.1,6.7c-1.1,2.3-4.4,10.4-5.3,13.4
		c-1,3-5.1,16.2-5.1,16.2L17.2,244c0,0-2.5,11.1-2.9,14c-0.4,3-1.9,11-2.6,14c-0.7,2.9-1.8,11.2-2.1,12.2c-0.4,0.9-1.2,1.5-2.1,1.5
		s-1.9-1.1-1.9-2.7C5.5,281.4,5.5,281.9,5.5,281.9z"/>
</g>
<g id="_x32_">
	<path fill="#FFFFFF" d="M150.6,266.2v-1.9c0,0,4.5-1.3,9.1-3.7s8.8-3.9,15.1-10.4s10.1-12.6,11-16.4c0.9-3.7,2.1-8.9,1.5-14.8
		c-0.6-5.9-1.4-10.2-2.8-15.1c-1.4-4.9-5.1-15.8-6-18.5s-4.3-12.3-5.1-15.5s-3.1-10.2-3.8-14.7c-0.7-4.5-2-11-2.1-16.1
		s-0.6-11.3,0.3-17.4s2.5-15.4,4.9-21.2c2.5-5.7,6.5-14.3,8.9-17.7c2.3-3.4,5.9-9,11.6-13.7c5.7-4.7,10.5-8,13.8-9.4
		c3.4-1.3,10.1-4.1,17.2-4.3s15.3,1.1,21.3,4.1c5.9,3,10.1,5.5,13.3,8.3c3.2,2.8,9.1,8.2,12.1,13.1c2.9,4.9,6.2,9.9,8,14.7
		c1.8,4.8,3.8,10.3,4.8,16.2c1,5.9,2.1,13.6,1.7,19.8c-0.4,6.1-1.1,14.9-2.1,19c-1.1,4.1-3.4,12.7-4.8,16.1
		c-1.4,3.5-4.7,11.4-7.2,15.5s-6.7,11.2-10.9,16.2c-4.2,5-15.8,16.7-22,22s-19.1,14.6-23.8,17.5c-4.7,2.9-12.2,7.7-19.1,10.9
		c-6.8,3.2-10.1,4.9-17.6,7.7C170.3,259.6,153.1,265.8,150.6,266.2z"/>
</g>
</svg>
